<svg xmlns="http://www.w3.org/2000/svg" width="570.695" height="40.818"><defs><clipPath><path d="M0 612h792v-612h-792v612z"/></clipPath></defs><g fill="#373535"><path d="M5.074 18.709v22.109h-5.074v-40.818h4.008l6.466 21.481h.742l6.569-21.481h3.85v40.818h-5.074v-22.269l-4.968 18.434h-1.71l-4.81-18.274z"/><path d="M34.131 40.817h-5.238v-40.818h5.238v40.818z"/><path d="M46.795 19.236v21.581h-4.862v-40.818h2.72l9.457 22.336v-22.336h4.862v40.818h-2.834l-9.344-21.581z"/><path d="M71.099 19.236v21.581h-4.866v-40.818h2.724l9.454 22.336v-22.336h4.862v40.818h-2.83l-9.344-21.581z"/><path d="M103.837 40.817h-13.3v-40.818h13.146v4.444h-7.91v13.246h7.426v4.49h-7.426v14.209h8.064v4.429z"/><path d="M117.669 12.668h-.374l-2.831 15.711h5.884l-2.679-15.711zm4.655 28.15l-1.229-7.911h-7.374l-1.282 7.911h-5.18l7.584-40.818h5.393l7.482 40.818h-5.394z"/><path d="M137.975 20.679h6.304v-16.236h-6.304v16.236zm0 20.139h-5.236v-40.818h12.928c2.563 0 3.847 1.403 3.847 3.428v18.22c0 2.126-1.339 3.468-3.578 3.468h-7.961v15.702z"/><path d="M168.154 4.444h-7.474v31.945h7.474v-31.945zm5.235 33.059c0 2.141-1.864 3.315-3.202 3.315h-11.541c-1.33 0-3.202-1.174-3.202-3.315v-34.175c0-2.139 1.873-3.327 3.202-3.327h11.541c1.339 0 3.202 1.189 3.202 3.327v34.175z"/><path d="M194.813 40.817h-14.318v-40.818h5.229v36.389h9.089v4.429z"/><path d="M204.475 40.817h-5.235v-40.818h5.235v40.818z"/><path d="M216.385 26.824v9.565h4.491v-9.245l-8.709-12.446c-.587-.909-1.014-1.711-1.014-2.665v-8.705c0-1.713 1.336-3.327 3.201-3.327h8.659c2.03 0 3.205 1.451 3.205 3.428v8.336h-5.231v-7.32h-4.489v7.165l8.326 11.747c.746 1.176 1.394 2.243 1.394 3.419v10.62c0 1.874-1.232 3.422-3.205 3.422h-8.659c-1.651 0-3.201-1.224-3.201-3.374v-10.62h5.231z"/><path d="M253.089 40.817h-5.236v-40.818h5.236v40.818z"/><path d="M265.751 19.236v21.581h-4.869v-40.818h2.721l9.457 22.336v-22.336h4.861v40.818h-2.831l-9.34-21.581z"/><path d="M289.296 26.824v9.565h4.492v-9.245l-8.709-12.446c-.585-.909-1.014-1.711-1.014-2.665v-8.705c0-1.713 1.338-3.327 3.201-3.327h8.652c2.034 0 3.205 1.451 3.205 3.428v8.336h-5.224v-7.32h-4.499v7.165l8.344 11.747c.742 1.176 1.379 2.243 1.379 3.419v10.62c0 1.874-1.22 3.422-3.205 3.422h-8.652c-1.641 0-3.201-1.224-3.201-3.374v-10.62h5.23z"/><path d="M313.444 40.817h-5.244v-36.374h-5.649v-4.444h16.55v4.444h-5.657v36.374z"/><path d="M329.048 40.817h-5.244v-40.818h5.244v40.818z"/><path d="M345.124 40.817h-5.241v-36.374h-5.663v-4.444h16.563v4.444h-5.659v36.374z"/><path d="M360.556 0v36.389h6.887v-36.389h5.241v37.444c0 1.985-1.286 3.374-3.207 3.374h-10.957c-1.865 0-3.199-1.224-3.199-3.374v-37.444h5.235z"/><path d="M388.061 40.817h-5.228v-36.374h-5.669v-4.444h16.563v4.444h-5.666v36.374z"/><path d="M411.73 40.817h-13.302v-40.818h13.13v4.444h-7.896v13.246h7.422v4.49h-7.422v14.209h8.069v4.429z"/><path d="M445.544 4.444h-7.478v31.945h7.478v-31.945zm5.23 33.059c0 2.141-1.866 3.315-3.196 3.315h-11.55c-1.329 0-3.204-1.174-3.204-3.315v-34.175c0-2.139 1.875-3.327 3.204-3.327h11.55c1.33 0 3.196 1.189 3.196 3.327v34.175z"/><path d="M457.88 40.817v-40.818h13.142v4.444h-7.907v13.302h7.429v4.535h-7.429v18.536h-5.235z"/><path d="M500.124 12.668h-.374l-2.834 15.711h5.884l-2.676-15.711zm4.651 28.15l-1.226-7.911h-7.365l-1.291 7.911h-5.179l7.585-40.818h5.394l7.478 40.818h-5.395z"/><path d="M520.424 40.817h-5.229v-40.818h13.518c2.507 0 3.578 1.56 3.578 3.428v15.017c0 2.338-1.6 3.458-3.531 3.458h-.636l5.08 18.915h-5.881l-5.395-21.683.912-1.655h4.214v-13.036h-6.629v36.374z"/><path d="M546.386 40.817h-5.232v-36.374h-5.661v-4.444h16.547v4.444h-5.654v36.374z"/><path d="M560.866 26.824v9.565h4.485v-9.245l-8.701-12.446c-.596-.909-1.025-1.711-1.025-2.665v-8.705c0-1.713 1.343-3.327 3.215-3.327h8.648c2.026 0 3.207 1.451 3.207 3.428v8.336h-5.239v-7.32h-4.482v7.165l8.33 11.747c.745 1.176 1.391 2.243 1.391 3.419v10.62c0 1.874-1.228 3.422-3.207 3.422h-8.648c-1.653 0-3.215-1.224-3.215-3.374v-10.62h5.241z"/></g></svg>