<svg xmlns="http://www.w3.org/2000/svg" width="181" height="150"><g><path d="M119.078 136.649v-122.456l60.922-.006v-13.157h-87.385v13.164h13.223l.007 135.808h74.155v-13.351h-60.922z" fill="#1896c6"/><path d="M153.473 136.649h-21.178v-55.616h21.178v55.616z" fill="#f89c0e"/><path d="M153.473 67.722h-21.178v-40.328h21.178v40.328z" fill="#fabd34"/><path d="M26.468 27.415l-.007 109.231 13.228-.001.003-109.23h-13.223z" fill="#fabd34"/><path d="M52.931 27.415l-.009 109.231 13.226-.001.004-109.23h-13.221z" fill="#f89c0e"/><path d="M166.771 14.194v122.455h13.229v-122.463l-13.229.007z" fill="#f47216"/><path d="M92.615 14.192l-.009 122.454 13.228-.001.004-122.453h-13.223z" fill="#231f20"/><path d="M92.615 1.029h-92.615v13.164h79.385v122.456l13.231-.011-.001-135.609z" fill="#2a976f"/><path d="M13.23 136.649v-122.456h-13.23v135.807h105.845v-13.364l-92.615.013z" fill="#b72c37"/><path d="M13.229 14.192l.001 122.456 13.23-.003.007-109.231h13.223l-.003 109.23 13.235-.001.009-109.229h13.221v109.234l13.232-.003v-122.454h-66.156z" fill="#231f20"/><path d="M132.304 67.726v-40.331h21.169v40.328l-21.169.004zm-13.226-53.532v122.455h13.224v-55.616h21.171v55.616h13.299v-122.455h-47.694z" fill="#231f20"/></g></svg>